HIERARCHY
ROOT Hips
{
	OFFSET -3.958830 18.904000 13.208200
	CHANNELS 6 Xposition Yposition Zposition Zrotation Yrotation Xrotation 
	JOINT LHipJoint
	{
		OFFSET 0.000000 0.000000 0.000000
		CHANNELS 3 Zrotation Yrotation Xrotation
		JOINT LeftUpLeg
		{
			OFFSET 1.800000 -1.400000 0.085000
			CHANNELS 3 Zrotation Yrotation Xrotation
			JOINT LeftLeg
			{
				OFFSET 2.215000 -6.000000 0.000000
				CHANNELS 3 Zrotation Yrotation Xrotation
				JOINT LeftFoot
				{
					OFFSET 2.500000 -6.900000 0.000000
					CHANNELS 3 Zrotation Yrotation Xrotation
					JOINT LeftToeBase
					{
						OFFSET 0.200000 -0.500000 1.950000
						CHANNELS 3 Zrotation Yrotation Xrotation
						End Site
						{
							OFFSET 0.000000 0.000000 0.000000
						}
					}
				}
			}
		}
	}
	JOINT RHipJoint
	{
		OFFSET 0.000000 0.000000 0.000000
		CHANNELS 3 Zrotation Yrotation Xrotation
		JOINT RightUpLeg
		{
			OFFSET -1.800000 -1.400000 0.085000
			CHANNELS 3 Zrotation Yrotation Xrotation
			JOINT RightLeg
			{
				OFFSET -2.215000 -6.000000 0.000000
				CHANNELS 3 Zrotation Yrotation Xrotation
				JOINT RightFoot
				{
					OFFSET -2.500000 -6.900000 0.000000
					CHANNELS 3 Zrotation Yrotation Xrotation
					JOINT RightToeBase
					{
						OFFSET -0.200000 -0.500000 1.950000
						CHANNELS 3 Zrotation Yrotation Xrotation
						End Site
						{
							OFFSET 0.000000 0.000000 0.000000
						}
					}
				}
			}
		}
	}
	JOINT LowerBack
	{
		OFFSET 0.000000 0.000000 0.000000
		CHANNELS 3 Zrotation Yrotation Xrotation
		JOINT Spine
		{
			OFFSET -0.087000 1.940000 -0.288900
			CHANNELS 3 Zrotation Yrotation Xrotation
			JOINT Spine1
			{
				OFFSET 0.000000 1.950000 0.060000
				CHANNELS 3 Zrotation Yrotation Xrotation
				JOINT Neck
				{
					OFFSET 0.000000 0.000000 0.000000
					CHANNELS 3 Zrotation Yrotation Xrotation
					JOINT Neck1
					{
						OFFSET 0.000000 1.600000 0.340000
						CHANNELS 3 Zrotation Yrotation Xrotation
						JOINT Head
						{
							OFFSET 0.000000 1.667000 -0.240000
							CHANNELS 3 Zrotation Yrotation Xrotation
							End Site
							{
								OFFSET 0.000000 0.000000 0.000000
							}
						}
					}
				}
				JOINT LeftShoulder
				{
					OFFSET 0.000000 0.000000 0.000000
					CHANNELS 3 Zrotation Yrotation Xrotation
					JOINT LeftArm
					{
						OFFSET 2.700000 1.550000 -0.730000
						CHANNELS 3 Zrotation Yrotation Xrotation
						JOINT LeftForeArm
						{
							OFFSET 5.450000 0.000000 0.000000
							CHANNELS 3 Zrotation Yrotation Xrotation
							JOINT LeftHand
							{
								OFFSET 3.450000 0.000000 0.000000
								CHANNELS 3 Zrotation Yrotation Xrotation
								JOINT LeftHandIndex1
								{
									OFFSET 0.750000 0.000000 0.000000
									CHANNELS 3 Zrotation Yrotation Xrotation
									End Site
									{
										OFFSET 0.000000 0.000000 0.000000
									}
								}
							}
						}
					}
				}
				JOINT RightShoulder
				{
					OFFSET 0.000000 0.000000 0.000000
					CHANNELS 3 Zrotation Yrotation Xrotation
					JOINT RightArm
					{
						OFFSET -2.700000 1.550000 -0.730000
						CHANNELS 3 Zrotation Yrotation Xrotation
						JOINT RightForeArm
						{
							OFFSET -5.450000 0.000000 0.000000
							CHANNELS 3 Zrotation Yrotation Xrotation
							JOINT RightHand
							{
								OFFSET -3.450000 0.000000 0.000000
								CHANNELS 3 Zrotation Yrotation Xrotation
								JOINT RightHandIndex1
								{
									OFFSET -0.750000 0.000000 0.000000
									CHANNELS 3 Zrotation Yrotation Xrotation
									End Site
									{
										OFFSET 0.000000 0.000000 0.000000
									}
								}
							}
						}
					}
				}
			}
		}
	}
}
MOTION
Frames: 8
Frame Time: 0.016667
0.012510 17.826380 -0.756360 -0.760452 0.124148 3.515341 -14.716832 12.336147 2.739561 -0.456054 -2.403986 -15.572594 -5.884735 5.496440 16.575178 0.371545 3.167192 3.487957 0.052820 0.011650 0.179940 18.724390 -11.841865 2.793370 -4.346073 0.211429 -13.678005 6.797307 -4.589815 11.043202 0.052501 -3.452123 3.096172 -0.149980 0.048030 0.213000 -4.880043 1.608320 -6.845398 14.599851 1.219089 1.205455 -10.859068 2.307530 9.369781 3.051831 7.030398 -10.873381 10.873582 -24.096706 26.566163 -8.327150 -18.067410 9.548740 -11.779719 -10.086209 5.668863 -34.128471 -2.807681 -5.308253 -6.013272 -20.515039 0.836489 -3.660518 3.414972 -0.392720 0.126430 -0.042580 0.072040 4.654356 5.499699 8.174000 50.199247 -3.526590 -4.939267 -0.560306 12.599586 -1.078118 3.018563 -1.671780 0.270530 -0.307720 -0.264430 0.274920 
0.020300 17.845130 -0.776350 -0.492296 -0.522955 4.464684 -14.724976 12.220800 2.766180 -0.899916 -2.558669 -16.303919 -6.134017 5.413015 16.075046 0.326132 3.079740 3.506237 0.088870 0.061810 0.218230 18.738174 -11.786585 2.841714 -4.112720 0.318636 -13.869866 6.205043 -4.080167 8.868042 0.057565 -3.320919 3.135764 -0.107010 0.033370 0.217850 -4.882673 1.731841 -6.858333 14.842066 1.373469 1.074564 -11.156872 2.447999 9.270225 3.483309 7.442633 -10.856307 12.147271 -23.860851 24.735613 -8.452200 -16.727350 8.241970 -12.239255 -10.186044 5.696764 -34.354366 -2.440081 -5.051420 -7.551966 -18.439662 0.879916 -3.689351 3.415539 -0.394180 0.136510 -0.034420 0.067360 4.234717 5.358734 8.090068 50.761472 -3.222518 -5.044113 0.007928 13.322557 -1.171442 2.985039 -1.700880 0.267590 -0.308950 -0.279950 0.257000 
0.025740 17.848740 -0.791080 -0.322068 -1.142921 5.507360 -14.738800 12.072002 2.782659 -1.119617 -2.794766 -17.322607 -6.490247 5.408168 15.966720 0.228751 3.071001 3.497485 0.145010 0.135710 0.270320 18.752689 -11.746082 2.873854 -3.805791 0.477720 -14.267282 5.684796 -3.685250 7.263993 0.059593 -3.243453 3.145380 -0.021620 0.037140 0.222200 -4.880423 1.940024 -6.827142 14.982115 1.578281 0.790036 -11.407873 2.528491 9.315757 4.212010 8.110756 -10.523239 14.098966 -23.765343 22.086216 -8.649110 -15.174850 6.159700 -12.780207 -9.719682 5.420962 -34.944865 -2.198418 -4.917675 -8.475727 -16.843548 0.771448 -3.745367 3.399225 -0.389200 0.165820 -0.036430 0.064310 3.420852 4.416156 7.704114 52.035208 -2.535526 -5.193526 -0.102929 14.338388 -1.402934 2.914785 -1.744283 0.238810 -0.281710 -0.289850 0.226010 
0.023650 17.849430 -0.802240 -0.301542 -1.701365 6.332252 -14.736946 11.922485 2.786945 -0.996994 -2.971598 -18.111582 -7.045861 5.468692 15.812200 0.148313 3.079563 3.469914 0.202090 0.201260 0.328590 18.778682 -11.724015 2.922149 -3.396759 0.601074 -14.393077 5.249770 -3.357212 5.661467 0.043209 -3.193260 3.139630 0.046250 0.015470 0.230300 -4.916943 2.189403 -6.822161 15.199587 1.898563 0.640805 -11.721611 2.706862 9.209791 4.976570 9.083572 -10.333668 16.377353 -23.823687 20.555539 -8.661470 -14.036540 4.526090 -13.627317 -9.434288 5.206704 -35.486598 -1.948631 -4.829862 -8.749945 -15.189366 0.584103 -3.780211 3.386322 -0.368750 0.174370 -0.023350 0.052420 2.840278 3.445242 7.486335 53.479891 -2.293837 -5.548607 -0.150731 15.580888 -1.612562 2.852247 -1.779659 0.223830 -0.273790 -0.299880 0.190910 
0.024710 17.841150 -0.802020 -0.576670 -1.770505 6.811456 -14.719040 11.778391 2.755400 -0.542628 -3.051470 -18.544118 -7.553995 5.550710 15.702315 0.063807 3.108350 3.429130 0.246420 0.253130 0.386860 18.821051 -11.708021 2.997893 -2.966139 0.619924 -13.780378 5.221188 -3.139125 3.749586 0.003003 -3.217291 3.115616 0.102800 -0.015920 0.223620 -5.003711 2.453390 -6.834196 15.857664 2.144580 0.539475 -12.130493 2.779149 9.052686 5.838335 10.264022 -10.147139 18.914575 -23.887299 20.016664 -8.628510 -12.999230 2.958370 -14.745890 -9.160922 4.952150 -35.954633 -1.862639 -4.687449 -8.656221 -13.451442 0.368786 -3.809769 3.341791 -0.330970 0.170630 -0.004540 0.026590 2.375555 2.231562 7.321818 54.823075 -2.279914 -5.887083 0.023968 16.547740 -1.744722 2.794864 -1.778779 0.201630 -0.253420 -0.298000 0.146950 
0.029400 17.822590 -0.801060 -0.799040 -2.143845 7.126909 -14.693426 11.651334 2.734911 -0.012866 -3.103638 -18.817261 -8.220105 5.695034 15.678135 0.023609 3.152049 3.379126 0.319670 0.334810 0.462770 18.861135 -11.728785 3.042395 -2.762060 0.656837 -13.579124 5.300395 -3.041152 2.785440 -0.047154 -3.235444 3.079965 0.158850 -0.065660 0.240150 -5.095541 2.740946 -6.830685 16.310617 2.484060 0.525327 -12.477686 2.917662 8.902480 6.750141 11.320160 -9.885287 21.306522 -23.912063 20.039209 -8.657710 -11.983050 1.620980 -15.783507 -8.574404 4.593165 -36.727324 -1.929680 -4.641938 -8.060765 -12.035695 0.160130 -3.817602 3.333267 -0.301650 0.156290 0.039120 0.018690 1.810106 0.839289 7.107981 56.148805 -2.016786 -6.049683 0.422685 17.374305 -1.839688 2.758698 -1.802377 0.213510 -0.260340 -0.324560 0.117700 
0.033150 17.795150 -0.800680 -1.087730 -2.144123 7.141696 -14.660147 11.566798 2.731030 0.620390 -3.151449 -19.013538 -8.949529 5.941212 16.011669 0.005364 3.256929 3.308453 0.352850 0.368080 0.507880 18.897904 -11.780789 3.055789 -2.525791 0.666105 -13.492510 5.238727 -3.055999 2.698993 -0.084806 -3.231886 3.052893 0.176220 -0.107430 0.257980 -5.194762 2.986479 -6.833781 16.826983 2.783990 0.702962 -12.814960 3.058316 8.652056 7.515110 12.211062 -9.726689 23.439960 -23.961974 21.012683 -8.662800 -11.192780 0.885730 -16.406630 -7.951399 4.190146 -37.872247 -2.467711 -4.570203 -7.450119 -10.827160 -0.007390 -3.826983 3.309866 -0.260820 0.137840 0.081100 0.002220 1.114920 -0.464415 7.085841 57.941013 -2.128676 -6.571264 0.452508 18.373973 -1.941961 2.730638 -1.802134 0.221640 -0.270930 -0.328200 0.092340 
0.034070 17.766770 -0.803710 -1.405413 -2.131879 6.853998 -14.617640 11.539603 2.745737 1.376735 -3.153859 -19.022994 -9.686752 6.230600 16.378438 0.010047 3.370221 3.234023 0.363360 0.364370 0.543650 18.927474 -11.864285 3.042295 -2.307097 0.660361 -13.631838 5.246691 -3.211906 3.635963 -0.110829 -3.182013 3.051208 0.157340 -0.162910 0.260160 -5.294385 3.171315 -6.854243 17.289032 3.006328 1.219351 -12.822184 3.184849 8.293886 7.955754 12.763678 -9.736165 25.009512 -23.873355 23.582827 -8.308220 -10.661040 0.478990 -16.230738 -7.097597 3.777782 -40.201058 -3.270829 -4.663265 -6.786941 -10.047040 -0.146379 -3.809421 3.262404 -0.194360 0.093460 0.130380 -0.021860 0.246401 -1.657500 7.226837 59.698528 -2.388519 -7.414566 0.555041 19.936653 -1.998999 2.714843 -1.769452 0.226720 -0.282140 -0.326380 0.063410 
